<?xml version="1.0" encoding="UTF-8"?>
<svg width="19px" height="20px" viewBox="0 0 19 20" version="1.1" xmlns="http://www.w3.org/2000/svg" xmlns:xlink="http://www.w3.org/1999/xlink">
    <!-- Generator: sketchtool 52.2 (67145) - http://www.bohemiancoding.com/sketch -->
    <title>A5090968-D236-4466-B570-F0E887A04B5D</title>
    <desc>Created with sketchtool.</desc>
    <g id="Page-1" stroke="none" stroke-width="1" fill="none" fill-rule="evenodd">
        <g id="v-02-01-Campaings---Ramadan" transform="translate(-1106.000000, -30.000000)" fill-rule="nonzero">
            <g id="Search" transform="translate(1100.000000, 25.000000)">
                <rect id="Sizer" stroke="#979797" fill="#D8D8D8" opacity="0" x="0.5" y="0.5" width="29" height="29"></rect>
                <path d="M15.8744035,18.3845111 C14.9974623,18.7799393 14.0244301,19 13,19 C9.13400675,19 6,15.8659932 6,12 C6,8.13400675 9.13400675,5 13,5 C16.8659932,5 20,8.13400675 20,12 C20,13.3872021 19.5964873,14.6801587 18.9004337,15.7678981 L24.0778284,21.9380769 L21.0136506,24.5092273 L15.8744035,18.3845111 Z M13,15 C14.6568542,15 16,13.6568542 16,12 C16,10.3431458 14.6568542,9 13,9 C11.3431458,9 10,10.3431458 10,12 C10,13.6568542 11.3431458,15 13,15 Z" id="Combined-Shape" fill="#8D8D8D"></path>
            </g>
        </g>
    </g>
</svg>