<svg xmlns="http://www.w3.org/2000/svg" width="17" height="17" viewBox="0 0 17 17">
    <g fill="none" fill-rule="evenodd">
        <path d="M-6-6h30v30H-6z"/>
        <path fill="#8D8D8D" fill-rule="nonzero" d="M15.003 9.329c.032-.266.054-.542.054-.829 0-.287-.022-.563-.065-.829l1.847-1.402a.43.43 0 0 0 .109-.542l-1.749-2.943a.45.45 0 0 0-.535-.192l-2.175.85a6.45 6.45 0 0 0-1.475-.828L10.686.36A.433.433 0 0 0 10.249 0H6.75a.422.422 0 0 0-.426.361l-.328 2.253c-.535.212-1.027.5-1.475.829l-2.175-.85a.438.438 0 0 0-.535.19L.062 5.728a.404.404 0 0 0 .11.542L2.02 7.67a5.196 5.196 0 0 0-.076.829c0 .276.022.563.065.829L.161 10.73a.43.43 0 0 0-.109.542l1.749 2.943a.45.45 0 0 0 .535.191l2.175-.85c.459.34.94.617 1.475.83l.328 2.252a.441.441 0 0 0 .437.361h3.498c.218 0 .404-.149.426-.361l.328-2.253a6.623 6.623 0 0 0 1.475-.828l2.175.85c.197.074.426 0 .535-.192l1.75-2.943a.404.404 0 0 0-.11-.542L15.003 9.33zM8.5 11.687c-1.803 0-3.279-1.434-3.279-3.187S6.697 5.312 8.5 5.312s3.279 1.435 3.279 3.188c0 1.753-1.476 3.188-3.279 3.188z"/>
    </g>
</svg>
