<svg xmlns="http://www.w3.org/2000/svg" width="140" height="29" viewBox="0 0 140 29">
    <g fill="#FFF" fill-rule="evenodd">
        <path d="M25.728 25.165c0 .91-.525 1.332-1.648 1.332h-.259v1.392h.259c2.758 0 3.337-1.481 3.337-2.724v-6.372h-1.69v6.372zM30.863 27.89h1.692v-9.096h-1.692zM39.508 18.793h-3.561v9.096h3.56c3.165 0 4.768-1.61 4.768-4.783 0-2.863-1.603-4.313-4.767-4.313m0 7.704h-1.869v-6.314h1.869c2.07 0 3.077.957 3.077 2.923 0 2.282-1.007 3.391-3.077 3.391M54.78 18.793l-4.074 9.096h1.78l3.076-7.114 1.308 3.015h-1.628l-.501 1.393h2.736l1.175 2.706h1.866l-4.095-9.096zM64.358 18.793h-1.69v9.096h6.441v-1.392h-4.751zM76.289 27.89h1.69v-3.91h4.539v-1.395h-4.54v-2.4h4.763v-1.39h-6.452zM91.501 24.322c0 1.526-.744 2.235-2.345 2.235-1.603 0-2.347-.709-2.347-2.235v-5.53h-1.692v5.53c0 2.408 1.359 3.628 4.039 3.628 2.68 0 4.037-1.22 4.037-3.628v-5.53H91.5v5.53zM95.57 20.185h2.859v7.704h1.693v-7.704h2.854v-1.392h-7.405zM104.658 20.185h2.857v7.704h1.691v-7.704h2.857v-1.392h-7.405zM116.733 18.793l-4.073 9.096h1.782l3.073-7.114 1.31 3.015h-1.63l-.5 1.393h2.735l1.177 2.706h1.864l-4.095-9.096zM124.812 27.89h1.69v-9.096h-1.69zM134.978 25.608l-3.164-6.815h-1.917v9.097h1.565v-6.141l2.847 6.14h1.27l2.796-6.126v6.127h1.565v-9.097h-1.858zM19.184 15.689h1.69v-1.825h-1.69zM22.139 15.689h1.693v-1.825h-1.693zM58.447 2.275h1.69V.445h-1.69z"/>
        <path d="M78.364 9.387V1.732h-1.68v7.164c0 .686-.072 1.154-.218 1.4-.19.356-.572.529-1.173.529l-13.115-.018c-.384 0-.749-.054-1.094-.16a4.022 4.022 0 0 0 1.381-1.308c.42-.645.633-1.354.633-2.109 0-.954-.323-1.773-.965-2.434-.702-.72-1.666-1.085-2.868-1.085-1.187 0-2.144.364-2.852 1.082-.65.654-.978 1.474-.978 2.437 0 .755.213 1.464.633 2.107.344.537.805.976 1.377 1.31-.344.106-.708.16-1.091.16H45.676c.008-.164.008-.322.008-.477 0-3.704-1.43-5.582-4.251-5.582-1.947 0-3.918 1.333-5.16 3.41l.233-6.411h-1.75v9.078l-11.126-.016c.13-.392.194-.86.194-1.425V4.766h-1.676v4.13c0 .678-.072 1.154-.216 1.415-.189.345-.574.514-1.176.514l-5.114-.018c-1.536 0-2.585-.886-2.739-2.313-.249-2.369-1.585-3.728-3.664-3.728h-4.85C1.866 4.766.588 6.314.588 9.368v5.578h1.675V9.431c0-2.014.795-3.217 2.126-3.217h1.73c-.464.644-.697 1.428-.697 2.336 0 2.308 1.465 3.798 3.734 3.798 1.37 0 2.392-.51 3.05-1.517.649 1.039 1.847 1.567 3.57 1.567h39.598c.961 0 1.603-.032 1.97-.096.606-.111 1.257-.351 1.94-.718.691.373 1.318.608 1.917.718.366.064 1.005.096 1.952.096h12.515c1.232 0 2.696-.522 2.696-3.011m-19.1-4.228c.648 0 1.162.19 1.536.57.355.355.528.794.528 1.344 0 .517-.182 1.026-.54 1.512-.366.505-.859.885-1.504 1.16-.682-.286-1.186-.673-1.544-1.177-.348-.47-.516-.966-.516-1.512 0-1.134.821-1.897 2.04-1.897m-15.29 4.919c0 .238-.01.488-.029.747h-7.609c.858-2.471 3.138-4.578 5.018-4.578 1.616 0 2.62 1.468 2.62 3.83m-34.818.764c-1.126 0-1.797-.827-1.797-2.214 0-1.502.679-2.364 1.861-2.364 1.1 0 1.729.8 1.729 2.194 0 2.137-1.023 2.384-1.793 2.384M81.178 12.397h1.675V1.732h-1.675zM112.508 10.567c0-3.4-2.247-5.594-5.72-5.594-1.873 0-3.322.59-4.305 1.757l-.144.172.164.154c.536.505.844.803.995.964l.233.247.18-.283c.619-.968 1.567-1.438 2.895-1.438 2.458 0 3.814 1.4 3.814 3.94 0 .102-.007.21-.015.322H95.167c-.248-4.022-2.183-6.06-5.751-6.06h-.258v1.53l.685-.001c1.309.074 2.246.571 2.86 1.521.481.747.74 1.76.768 3.01h-6.524V12.4h25.561v-1.832zM106.236 15.677h1.704v-1.83h-1.704zM116.805 12.399h16.453c.673.907 1.683 1.37 3 1.37 1.136 0 2.054-.385 2.73-1.14.63-.701.951-1.602.951-2.679 0-1.103-.31-2.01-.926-2.694-.662-.734-1.585-1.104-2.74-1.104-1.155 0-2.083.364-2.76 1.088-.671.725-1.01 1.643-1.01 2.725 0 .292.028.576.083.844-5.758 0-15.24-.004-15.495-.015-.379-.052-.628-.176-.766-.38-.189-.272-.286-.752-.286-1.423V1.73h-1.712v7.923c0 .907.258 1.587.787 2.075a2.371 2.371 0 0 0 1.691.67m19.452-.111c-.63 0-1.096-.219-1.426-.665-.289-.405-.435-.942-.435-1.591 0-.713.143-1.265.439-1.693.335-.484.822-.722 1.49-.722.612 0 1.061.216 1.368.656.261.394.392.923.392 1.566 0 1.648-.599 2.449-1.828 2.449M5.67 25.608l-3.163-6.815H.587v9.097h1.565v-6.141l2.85 6.14h1.265l2.798-6.126v6.127h1.565v-9.097H8.773zM16.854 18.793l-4.073 9.096h1.781l3.076-7.114 1.307 3.015h-1.63l-.498 1.393h2.734l1.176 2.706h1.866l-4.096-9.096z"/>
    </g>
</svg>
